<?xml version="1.0" standalone="no"?>
<!DOCTYPE svg PUBLIC "-//W3C//DTD SVG 20010904//EN"
 "http://www.w3.org/TR/2001/REC-SVG-20010904/DTD/svg10.dtd">
<svg version="1.0" xmlns="http://www.w3.org/2000/svg"
 width="2000.000000pt" height="1500.000000pt" viewBox="0 0 2000.000000 1500.000000"
 preserveAspectRatio="xMidYMid meet">
<metadata>
Created by potrace 1.16, written by Peter Selinger 2001-2019
</metadata>
<g transform="translate(0.000000,1500.000000) scale(0.100000,-0.100000)"
fill="#000000" stroke="none">
<path d="M14654 10025 l-37 -35 7 -87 c10 -134 17 -173 31 -173 7 0 33 22 59
50 l46 49 -6 73 c-12 148 -38 181 -100 123z m65 1 c12 -14 31 -170 24 -197 -3
-9 -24 -32 -48 -52 l-43 -36 -6 60 c-20 190 -20 172 9 207 29 35 46 40 64 18z"/>
<path d="M15540 10033 c-42 -22 -70 -73 -70 -130 0 -33 7 -48 33 -76 43 -47
90 -55 180 -33 91 22 127 5 127 -59 0 -68 -67 -125 -147 -125 -96 0 -164 45
-213 139 -16 31 -29 50 -30 43 0 -25 50 -110 81 -136 70 -59 175 -74 249 -36
72 37 96 138 44 179 -32 25 -51 26 -119 5 -123 -39 -221 41 -185 150 17 52 53
76 113 76 53 0 54 0 158 -119 28 -32 43 -41 67 -41 42 0 70 39 54 75 -7 14
-18 25 -26 25 -22 0 -46 -11 -46 -21 0 -5 9 -4 20 3 16 10 23 10 36 -4 16 -16
16 -18 0 -42 -32 -49 -77 -28 -138 63 -48 71 -123 97 -188 64z"/>
<path d="M14137 9983 c-13 -12 -7 -45 12 -77 15 -25 71 -198 71 -220 0 -3 -8
-6 -18 -6 -22 0 -42 -19 -42 -39 0 -11 5 -9 16 7 27 39 49 28 64 -33 7 -30 17
-55 21 -55 4 0 2 21 -6 48 -19 61 -19 59 13 55 22 -3 31 3 50 31 12 20 22 48
22 63 0 43 -37 163 -57 185 -37 41 -49 41 -81 -2 -28 -39 -29 -40 -47 -20 -12
13 -15 27 -11 45 6 25 5 30 -7 18z m135 -51 c27 -32 63 -161 54 -194 -11 -42
-39 -67 -66 -62 -23 5 -29 16 -54 106 l-27 100 25 39 c15 21 30 39 35 39 5 0
20 -13 33 -28z"/>
<path d="M13710 9881 c-13 -25 -13 -31 0 -31 6 0 10 7 10 15 0 21 27 30 45 15
22 -18 18 -57 -7 -75 -19 -12 -39 -14 -108 -9 -96 7 -131 -4 -169 -52 -41 -52
-19 -149 44 -190 14 -9 43 -17 65 -17 59 0 100 30 137 98 53 100 100 118 150
57 50 -60 18 -166 -66 -223 -56 -37 -113 -45 -187 -26 -64 16 -85 14 -38 -3
50 -20 121 -23 171 -10 63 18 137 89 153 148 18 70 -17 143 -77 158 -40 10
-72 -14 -107 -81 -37 -71 -82 -105 -139 -105 -32 0 -46 7 -78 39 -33 33 -39
45 -39 81 0 36 6 48 40 83 l41 40 89 -6 c103 -8 137 1 146 38 15 59 -49 106
-76 56z"/>
<path d="M12817 9173 c-10 -10 -8 -51 2 -58 6 -3 9 7 8 22 -1 19 3 28 16 31
44 9 63 -52 28 -87 -10 -10 -43 -26 -73 -35 -90 -26 -138 -80 -138 -153 0 -88
116 -151 199 -109 46 25 64 62 71 155 6 71 11 87 30 103 33 27 66 22 107 -16
33 -30 37 -39 40 -92 4 -53 1 -65 -29 -114 -26 -43 -45 -61 -87 -82 -30 -16
-66 -28 -80 -28 -14 0 -33 -5 -41 -11 -11 -7 -3 -8 30 -3 131 19 220 110 220
224 0 62 -20 104 -63 130 -81 50 -137 7 -137 -105 0 -69 -23 -121 -64 -146
-40 -24 -83 -24 -123 1 -103 62 -68 193 64 234 32 10 68 27 81 39 26 24 29 69
6 91 -16 16 -55 22 -67 9z"/>
<path d="M14704 8693 c-14 -46 -32 -70 -71 -88 -38 -18 -42 -24 -43 -57 0 -32
3 -37 29 -43 35 -7 69 -43 80 -81 7 -26 12 -29 46 -29 35 0 39 3 47 32 9 34
47 70 85 79 19 5 23 13 23 43 0 33 -4 38 -35 50 -41 14 -75 54 -75 87 0 21 -5
24 -40 24 -30 0 -42 -5 -46 -17z"/>
<path d="M15362 8650 c-121 -32 -164 -62 -322 -222 -80 -80 -320 -314 -535
-518 -214 -205 -392 -381 -393 -392 -2 -12 9 -33 27 -52 l31 -32 -50 -49 c-29
-28 -50 -58 -50 -70 0 -12 14 -34 30 -50 l30 -29 -50 -51 c-27 -28 -50 -60
-50 -71 0 -11 14 -33 30 -49 l30 -29 -50 -51 c-48 -49 -61 -80 -40 -101 6 -6
-35 -54 -120 -139 l-129 -129 -26 24 -26 24 -26 -26 -26 -27 62 -70 c35 -39
105 -110 157 -158 l95 -86 27 26 26 26 -24 26 -24 26 129 129 c85 85 133 126
139 120 21 -21 52 -8 101 40 l51 50 29 -30 c16 -16 38 -30 49 -30 11 0 43 23
71 50 l51 50 29 -30 c16 -16 38 -30 50 -30 12 0 42 21 70 50 l49 50 32 -31
c25 -24 39 -30 58 -27 l26 5 -38 -71 c-92 -168 -182 -344 -182 -354 0 -6 13
-18 29 -27 29 -15 29 -15 54 28 13 23 75 140 138 259 63 120 117 218 122 218
4 0 7 -112 7 -250 l0 -250 35 0 35 0 2 258 3 257 124 -235 c172 -326 156 -303
192 -285 16 9 29 20 29 26 0 6 -76 154 -168 329 l-169 318 311 310 c225 224
326 317 364 338 112 59 221 207 257 349 101 397 -281 770 -683 665z m263 -75
c83 -22 150 -61 216 -128 58 -57 112 -152 125 -215 l6 -30 -104 52 c-122 61
-209 86 -328 93 -143 9 -324 -38 -454 -118 -26 -17 -50 -29 -51 -27 -2 2 6 30
17 63 79 236 332 372 573 310z m-193 -322 c-101 -49 -116 -177 -31 -257 l42
-39 -46 6 c-86 12 -221 67 -310 125 l-38 25 48 30 c100 63 270 125 343 126 23
1 23 -1 -8 -16z m194 6 c94 -17 324 -122 324 -147 0 -5 -33 -27 -73 -49 -79
-45 -225 -98 -296 -106 l-45 -6 39 22 c54 31 78 67 83 129 4 61 -19 106 -77
145 -39 26 -36 27 45 12z m-675 -121 c-2 -51 2 -117 9 -148 33 -154 150 -304
291 -372 93 -45 153 -59 248 -60 l74 0 -354 -354 -354 -354 -327 327 c-181
181 -328 331 -328 335 0 5 739 718 744 718 1 0 -1 -42 -3 -92z m606 30 c44
-41 22 -120 -37 -133 -53 -12 -108 41 -96 91 16 62 88 84 133 42z m-415 -201
c135 -66 227 -89 363 -89 131 0 237 27 368 94 45 24 86 45 91 47 14 6 -2 -47
-34 -116 -88 -191 -311 -302 -518 -259 -139 29 -265 122 -329 243 -31 59 -58
137 -45 131 4 -2 51 -24 104 -51z m-444 -1124 l-32 -33 -248 247 c-136 136
-248 252 -248 257 0 6 12 23 27 38 l27 29 253 -253 253 -252 -32 -33z m-195
-35 c-15 -15 -31 -28 -37 -28 -13 0 -336 321 -336 334 0 6 12 23 27 38 l27 29
173 -173 173 -172 -27 -28z m-200 -40 c-15 -15 -31 -28 -37 -28 -13 0 -176
161 -176 174 0 6 12 23 27 38 l27 28 93 -92 93 -92 -27 -28z m-263 -183 l-130
-130 -52 53 -53 52 130 130 130 130 52 -52 53 -53 -130 -130z"/>
<path d="M15117 7342 l-158 -158 29 -27 28 -27 157 158 158 158 -29 27 -28 27
-157 -158z"/>
<path d="M14335 8508 c-15 -32 -31 -48 -62 -63 -38 -18 -42 -23 -43 -57 0 -31
4 -38 19 -38 29 0 78 -46 91 -85 11 -32 15 -35 51 -35 34 0 39 3 39 24 0 34
33 71 80 90 36 14 40 20 40 49 0 31 -4 35 -40 46 -42 12 -80 57 -80 94 0 13
-8 17 -38 17 -34 0 -39 -3 -57 -42z"/>
<path d="M12505 8510 c31 -12 43 -31 69 -106 13 -38 27 -76 31 -85 8 -21 -39
-39 -102 -39 -80 0 -120 73 -72 134 32 40 80 32 107 -19 9 -15 11 -16 12 -4 0
26 -43 59 -77 59 -54 0 -90 -73 -67 -135 17 -44 98 -56 205 -28 64 16 67 16
100 -3 60 -35 64 -111 8 -143 -56 -31 -117 22 -69 61 14 12 17 18 8 18 -40 0
-51 -60 -16 -84 54 -38 128 4 128 71 0 64 -30 93 -110 103 -43 5 -45 7 -59 53
-9 29 -11 51 -5 56 5 5 51 1 108 -9 65 -12 108 -15 123 -9 34 13 28 19 -11 12
-19 -3 -75 2 -125 11 -50 10 -96 14 -101 11 -5 -3 -15 7 -22 22 -18 42 -39 63
-62 62 -21 0 -21 0 -1 -9z"/>
<path d="M10163 8164 c-96 -95 -93 -76 -93 -646 0 -313 4 -488 10 -488 6 0 11
104 12 277 l3 277 70 57 c39 32 76 58 83 59 24 0 113 -100 139 -156 23 -52 25
-64 19 -138 -18 -221 -18 -244 -6 -281 16 -48 80 -121 91 -104 5 8 -3 26 -21
45 -54 62 -56 85 -34 344 8 103 -16 168 -97 252 -32 35 -59 65 -59 68 0 3 39
34 85 69 74 57 93 81 66 81 -5 0 -80 -56 -167 -125 -87 -68 -163 -125 -168
-125 -4 0 -6 84 -4 188 4 218 15 255 98 333 34 31 46 50 40 59 -6 10 -23 -2
-67 -46z"/>
<path d="M3820 8136 c-108 -24 -198 -94 -242 -191 -32 -69 -32 -214 0 -295 43
-109 158 -192 287 -205 111 -12 217 22 331 108 96 73 152 97 223 97 58 0 64
-2 106 -41 115 -106 94 -304 -47 -434 -98 -91 -220 -134 -378 -135 -170 0
-288 57 -444 213 -59 60 -112 105 -116 100 -13 -12 91 -135 163 -193 199 -162
461 -195 683 -85 91 44 163 116 206 202 29 60 33 77 33 148 -1 154 -70 244
-196 253 -79 6 -128 -14 -235 -94 -113 -84 -175 -107 -284 -108 -72 0 -94 4
-146 28 -74 33 -125 83 -156 151 -18 40 -22 68 -23 145 0 84 3 101 27 145 35
66 80 108 153 141 50 23 74 28 145 28 77 1 92 -2 150 -31 36 -18 103 -65 150
-104 104 -89 165 -119 241 -119 100 0 163 62 164 160 0 51 -4 62 -29 89 -16
16 -41 33 -56 36 -43 9 -98 -18 -115 -57 -15 -37 1 -55 20 -23 35 62 80 71
126 26 33 -33 37 -71 15 -126 -32 -75 -136 -98 -232 -50 -27 13 -84 56 -128
94 -89 78 -157 116 -235 131 -66 12 -91 12 -161 -4z"/>
<path d="M5382 8135 c-118 -26 -202 -97 -243 -204 -30 -81 -24 -222 15 -303
81 -170 312 -236 501 -143 28 13 78 45 110 71 84 65 148 94 213 94 61 0 99
-17 136 -60 36 -43 49 -96 44 -181 -8 -160 -114 -279 -308 -345 -85 -29 -273
-27 -362 4 -115 40 -254 147 -341 262 -19 25 -29 32 -37 24 -26 -26 158 -209
270 -268 229 -120 511 -94 684 65 104 95 147 231 116 367 -15 69 -86 147 -144
158 -92 17 -172 -10 -278 -92 -120 -94 -228 -127 -344 -105 -173 32 -264 143
-266 322 -1 176 111 293 299 314 109 13 204 -29 343 -149 91 -79 149 -106 225
-106 73 0 120 25 147 80 25 49 24 130 -2 163 -24 31 -78 50 -114 41 -28 -7
-76 -57 -76 -80 0 -21 27 -17 33 5 8 31 52 54 87 46 87 -19 82 -168 -6 -210
-48 -23 -117 -19 -172 9 -26 14 -85 56 -131 96 -94 80 -152 112 -229 129 -66
14 -90 13 -170 -4z"/>
<path d="M8131 8134 c-114 -24 -208 -106 -246 -215 -33 -93 -11 -252 45 -334
65 -94 161 -139 295 -138 114 0 173 22 286 104 108 79 151 99 217 99 118 0
184 -81 184 -227 0 -329 -484 -502 -806 -288 -62 41 -153 126 -204 190 -23 28
-35 36 -43 28 -13 -13 61 -105 147 -182 236 -210 614 -213 819 -7 82 82 108
138 113 243 5 103 -14 165 -66 216 -46 44 -78 57 -145 57 -66 0 -128 -29 -235
-108 -99 -74 -162 -97 -262 -97 -108 0 -170 25 -241 94 -68 67 -89 124 -89
240 0 98 27 159 99 223 66 60 131 82 236 82 96 0 156 -25 250 -103 33 -27 91
-71 128 -98 64 -45 73 -48 140 -51 62 -3 77 -1 106 20 19 13 43 37 54 55 24
42 26 123 3 158 -22 34 -79 58 -117 50 -48 -11 -105 -95 -64 -95 8 0 15 5 15
10 0 20 49 60 73 60 36 0 75 -36 83 -74 8 -47 -25 -120 -65 -140 -45 -24 -123
-20 -179 8 -26 13 -81 54 -122 90 -87 76 -163 119 -238 135 -66 14 -90 13
-171 -5z"/>
<path d="M2913 8120 c-58 -12 -95 -33 -130 -74 -44 -49 -56 -95 -51 -190 5
-95 34 -160 128 -291 133 -184 153 -298 74 -416 -39 -57 -96 -84 -180 -84 -60
0 -76 4 -113 28 -23 15 -50 42 -61 60 -23 37 -35 106 -26 143 10 40 59 84 94
84 36 0 82 -34 82 -61 0 -10 7 -19 15 -19 45 0 -14 94 -65 105 -67 15 -141
-38 -154 -110 -4 -20 -2 -61 4 -92 37 -177 293 -232 417 -89 42 47 58 97 58
186 0 64 -5 85 -31 141 l-31 66 105 84 c58 46 111 88 119 92 19 12 51 -1 64
-25 6 -11 26 -122 45 -247 19 -124 39 -242 44 -261 21 -76 87 -147 113 -121 9
10 8 14 -6 22 -31 18 -64 60 -75 98 -6 20 -27 140 -47 266 -37 246 -47 283
-78 294 -16 6 -9 16 53 65 76 61 109 114 110 171 0 44 -11 75 -26 75 -10 0
-12 -12 -7 -48 10 -84 -7 -105 -221 -274 -105 -83 -196 -155 -202 -160 -13
-10 -97 98 -138 177 -74 144 -43 301 71 356 69 33 173 33 227 0 101 -63 101
-190 -2 -283 -32 -29 -38 -39 -28 -47 17 -14 89 62 117 122 71 158 -74 298
-268 257z"/>
<path d="M7619 8028 c0 -2 -15 -52 -33 -113 l-32 -110 -40 -5 c-40 -6 -114
-44 -114 -60 0 -20 19 -18 50 5 20 15 48 25 67 25 l33 0 0 -287 c0 -306 5
-345 47 -402 30 -39 103 -76 115 -58 4 7 -11 21 -40 37 -34 18 -53 37 -69 70
-22 43 -23 53 -23 342 l0 298 100 0 c82 0 100 3 100 15 0 12 -17 15 -95 15
-107 0 -104 -3 -79 81 46 158 44 149 28 149 -7 0 -14 -1 -15 -2z"/>
<path d="M6381 7931 c-35 -49 -36 -81 -5 -152 l28 -64 4 -293 3 -292 -53 6
c-30 3 -65 1 -80 -5 -27 -10 -68 -64 -68 -88 0 -25 28 -13 40 17 7 17 21 35
31 40 23 13 71 13 103 0 l26 -10 0 -155 c0 -130 2 -155 15 -155 12 0 15 26 17
150 l3 151 58 -35 57 -35 83 68 c49 40 92 85 107 111 25 44 25 48 25 275 0
213 -2 233 -21 275 -24 51 -94 140 -109 140 -5 -1 -55 -39 -110 -85 l-100 -85
-27 58 c-34 72 -35 103 -2 141 23 28 25 51 4 51 -5 0 -18 -13 -29 -29z m295
-123 c15 -18 38 -56 51 -85 23 -51 24 -58 21 -265 -4 -253 -6 -260 -116 -351
l-72 -60 -58 31 -57 31 -3 284 -2 284 97 81 c54 45 101 82 105 82 3 0 19 -15
34 -32z"/>
<path d="M7091 7820 c-50 -40 -99 -86 -109 -103 -15 -28 -17 -71 -20 -363 -3
-305 -2 -332 14 -338 19 -7 40 6 183 116 144 111 135 89 139 360 4 278 0 296
-89 376 l-26 22 -92 -70z m123 5 c51 -47 56 -75 56 -316 0 -178 -3 -227 -15
-253 -11 -22 -56 -62 -134 -119 -66 -48 -122 -87 -125 -87 -3 0 -6 138 -6 308
1 360 -3 345 112 434 40 31 76 57 79 57 3 1 18 -10 33 -24z"/>
<path d="M9250 7839 c-145 -106 -150 -120 -150 -428 0 -125 5 -243 10 -263 14
-50 51 -92 105 -118 l44 -21 75 59 c53 41 72 62 66 72 -6 10 -24 1 -73 -38
-36 -29 -74 -52 -86 -52 -30 0 -97 70 -104 110 -4 18 -7 92 -7 164 l1 131 101
75 c56 41 124 92 150 113 l48 38 -51 99 c-28 55 -56 100 -62 100 -7 -1 -37
-19 -67 -41z m105 -69 c19 -38 35 -74 35 -79 0 -8 -28 -31 -184 -146 l-79 -58
5 95 c3 70 9 103 24 128 19 33 134 130 154 130 6 0 26 -31 45 -70z"/>
<path d="M9720 7840 c-74 -51 -126 -110 -139 -157 -6 -22 -11 -139 -11 -276 0
-254 5 -284 53 -335 18 -20 87 -62 100 -62 3 0 38 26 80 58 53 41 73 63 67 72
-6 10 -26 -1 -80 -43 -69 -54 -74 -56 -99 -43 -35 19 -67 54 -80 89 -6 16 -11
92 -11 170 l0 142 151 113 150 113 -53 100 c-29 54 -57 99 -63 98 -5 0 -35
-17 -65 -39z m103 -69 c20 -38 37 -73 37 -79 0 -5 -58 -53 -130 -105 l-130
-96 0 82 c0 90 19 145 61 184 38 34 103 82 114 82 6 1 27 -30 48 -68z"/>
<path d="M10785 7843 c-150 -107 -155 -123 -155 -442 0 -265 7 -295 71 -344
71 -54 81 -53 164 11 51 41 71 62 65 72 -6 9 -26 -1 -80 -44 l-72 -56 -30 18
c-17 9 -42 32 -57 51 -25 33 -26 40 -29 189 -3 140 -2 155 15 167 10 7 78 58
151 114 l133 102 -52 100 c-29 54 -57 99 -63 99 -6 0 -33 -17 -61 -37z m100
-74 c20 -38 35 -76 32 -82 -3 -7 -62 -54 -131 -104 l-126 -93 0 78 c1 82 16
140 47 174 25 29 116 97 129 97 6 1 28 -31 49 -70z"/>
<path d="M11231 7810 c-34 -38 -66 -70 -71 -70 -5 0 -13 15 -19 33 -15 44 -66
95 -74 73 -3 -8 1 -20 9 -27 42 -35 44 -53 44 -429 0 -313 2 -360 15 -360 13
0 15 43 15 328 l1 327 75 79 c49 52 78 76 84 70 6 -6 26 -39 44 -74 28 -51 36
-61 42 -46 4 10 0 32 -9 49 -19 41 -75 117 -85 117 -4 0 -36 -31 -71 -70z"/>
<path d="M12384 7686 c-17 -8 -43 -30 -58 -49 -51 -67 -47 -154 11 -218 131
-145 362 16 273 191 -28 56 -72 83 -139 87 -34 2 -69 -2 -87 -11z"/>
<path d="M17201 7683 c-71 -35 -106 -130 -77 -208 71 -186 340 -126 324 72 -5
60 -27 96 -78 131 -40 27 -119 30 -169 5z"/>
<path d="M12662 6853 c-18 -8 -53 -44 -79 -79 -52 -71 -97 -99 -143 -89 -65
14 -91 95 -45 140 42 43 94 23 81 -30 -8 -30 -1 -32 14 -4 17 31 -11 69 -51
69 -76 0 -108 -103 -50 -161 43 -42 107 -38 158 10 l23 21 50 -32 c27 -18 50
-38 50 -45 0 -6 -39 -33 -87 -59 -96 -51 -133 -80 -133 -102 0 -9 8 -5 20 11
11 14 60 47 108 73 48 25 92 53 98 61 10 12 18 11 52 -7 31 -16 45 -18 66 -11
36 14 33 21 -7 14 -28 -4 -47 4 -118 48 -46 29 -86 54 -88 56 -8 6 50 83 74
99 41 27 94 23 121 -10 28 -32 32 -87 7 -111 -16 -17 -54 -17 -98 -1 -20 8
-20 7 -1 -8 11 -9 37 -16 57 -16 61 0 89 44 69 105 -22 68 -81 91 -148 58z"/>
<path d="M16937 6493 c9 -60 26 -77 121 -127 95 -48 141 -57 163 -30 15 18 13
63 -2 79 -7 6 -8 -5 -3 -32 6 -40 5 -42 -22 -49 -21 -5 -42 0 -83 22 -59 31
-56 25 -75 137 -7 37 -7 37 -56 37 l-49 0 6 -37z"/>
<path d="M12880 6372 c-126 -69 -96 -240 51 -283 89 -27 116 -95 59 -149 -75
-70 -213 -22 -269 93 -23 47 -28 137 -12 195 5 17 6 32 1 32 -9 0 -15 -24 -25
-92 -26 -179 173 -342 304 -249 41 30 57 73 41 112 -10 24 -30 39 -94 69 -67
32 -86 46 -104 78 -26 46 -28 82 -7 122 49 94 181 94 230 0 10 -19 15 -58 15
-109 0 -90 11 -124 47 -140 40 -18 78 5 78 49 0 32 -3 35 -30 37 -28 2 -28 1
-5 -5 28 -9 38 -36 20 -57 -20 -24 -56 -18 -80 13 -19 24 -21 35 -16 97 6 61
4 76 -16 114 -42 81 -119 111 -188 73z"/>
<path d="M16432 5819 c-15 -58 -1 -87 84 -176 58 -62 74 -73 102 -73 26 0 35
5 42 26 6 14 10 35 9 47 -1 15 -5 8 -13 -18 -19 -59 -48 -59 -108 2 -45 46
-47 49 -39 88 24 110 24 112 -6 123 -16 5 -35 13 -44 17 -13 5 -19 -3 -27 -36z"/>
<path d="M13614 5651 c-57 -35 -81 -128 -49 -191 8 -15 31 -39 52 -52 34 -20
48 -23 126 -20 82 2 90 0 112 -22 14 -14 25 -35 25 -48 0 -41 -38 -88 -88
-110 -42 -19 -53 -20 -101 -10 -101 21 -167 86 -192 187 -16 63 -33 84 -24 30
10 -62 53 -142 93 -175 43 -35 111 -60 164 -60 116 0 202 127 133 195 -22 23
-32 25 -116 25 -76 0 -98 4 -126 21 -114 71 -57 249 76 236 62 -7 91 -33 133
-119 40 -84 73 -114 113 -104 32 8 56 45 48 74 -8 34 -73 43 -73 10 0 -7 5 -7
14 1 19 16 46 3 46 -23 0 -29 -18 -46 -50 -46 -34 0 -65 33 -85 90 -21 61 -40
87 -78 110 -41 26 -112 26 -153 1z"/>
<path d="M16114 5573 c-21 -48 -13 -78 37 -160 60 -96 77 -113 115 -113 26 0
34 6 44 29 7 17 10 36 8 43 -3 7 -10 -4 -17 -24 -16 -49 -48 -51 -85 -7 -55
65 -58 80 -31 148 14 33 25 65 25 70 0 9 -61 51 -74 51 -4 0 -14 -17 -22 -37z"/>
<path d="M15738 5519 c-10 -5 -18 -20 -17 -32 0 -22 0 -22 10 1 10 27 46 27
63 0 14 -22 0 -48 -36 -65 -22 -11 -37 -9 -102 12 -91 30 -99 30 -153 5 -128
-58 -99 -252 39 -267 63 -7 109 16 158 79 23 29 53 59 67 66 59 32 117 -26
110 -110 -5 -62 -42 -109 -112 -143 -83 -41 -140 -34 -279 33 -5 3 -5 -1 -1
-8 4 -7 31 -23 59 -36 106 -49 249 -21 313 63 49 64 40 183 -16 213 -46 24
-72 13 -145 -64 -59 -62 -78 -75 -113 -81 -59 -9 -106 15 -133 69 -24 51 -25
77 -5 117 35 67 120 86 215 49 64 -25 91 -25 124 1 31 24 35 68 8 92 -21 19
-30 20 -54 6z"/>
<path d="M14211 5332 c-5 -9 -7 -29 -4 -44 3 -15 -8 -78 -23 -139 l-29 -110
-29 5 c-29 6 -56 -7 -56 -27 0 -7 4 -7 12 1 12 12 50 16 60 6 3 -3 0 -29 -8
-57 -18 -67 -16 -96 2 -37 24 77 22 75 43 56 17 -15 21 -15 64 3 52 22 62 37
88 130 22 76 24 119 7 156 -12 27 -25 27 -80 -1 -37 -19 -38 -19 -38 21 0 22
6 38 18 44 16 10 16 10 0 11 -10 0 -22 -8 -27 -18z m123 -84 c7 -20 4 -48 -9
-104 -25 -97 -44 -129 -90 -144 -31 -10 -39 -10 -55 5 -18 16 -18 18 0 83 10
37 23 86 30 109 8 34 19 47 48 63 47 25 64 22 76 -12z"/>
<path d="M14693 5209 c-24 -16 -45 -40 -48 -52 -10 -48 -23 -252 -17 -259 9
-9 127 65 135 85 3 8 9 58 13 110 5 80 4 98 -11 120 -9 15 -20 27 -24 27 -3
-1 -25 -14 -48 -31z m67 -9 c7 -13 8 -52 4 -111 -8 -101 -17 -117 -88 -159
l-38 -23 7 114 c9 136 14 153 57 179 41 25 45 25 58 0z"/>
</g>
</svg>
